<?xml version="1.0" encoding="UTF-8"?>
<svg xmlns="http://www.w3.org/2000/svg" xmlns:xlink="http://www.w3.org/1999/xlink" width="375pt" height="374.999991pt" viewBox="0 0 375 374.999991" version="1.2">
<g id="surface1">
<path style=" stroke:none;fill-rule:nonzero;fill:rgb(100%,100%,100%);fill-opacity:1;" d="M 364.203125 187.441406 C 364.203125 285.066406 285.0625 364.203125 187.4375 364.203125 C 89.8125 364.203125 10.667969 285.066406 10.667969 187.441406 C 10.667969 89.8125 89.8125 10.667969 187.4375 10.667969 C 285.0625 10.667969 364.203125 89.8125 364.203125 187.441406 "/>
<path style=" stroke:none;fill-rule:nonzero;fill:rgb(13.729858%,12.159729%,12.548828%);fill-opacity:1;" d="M 187.4375 21.382812 C 95.875 21.382812 21.382812 95.875 21.382812 187.4375 C 21.382812 278.996094 95.875 353.488281 187.4375 353.488281 C 278.996094 353.488281 353.488281 278.996094 353.488281 187.4375 C 353.488281 95.875 278.996094 21.382812 187.4375 21.382812 Z M 187.4375 374.914062 C 84.054688 374.914062 -0.046875 290.816406 -0.046875 187.4375 C -0.046875 84.058594 84.054688 -0.046875 187.4375 -0.046875 C 290.8125 -0.046875 374.914062 84.058594 374.914062 187.4375 C 374.914062 290.816406 290.8125 374.914062 187.4375 374.914062 "/>
<path style=" stroke:none;fill-rule:nonzero;fill:rgb(13.729858%,12.159729%,12.548828%);fill-opacity:1;" d="M 187.4375 201.253906 L 301.957031 105.839844 C 301.347656 105.71875 300.785156 105.472656 300.136719 105.472656 L 74.734375 105.472656 C 74.117188 105.472656 73.542969 105.71875 72.933594 105.839844 L 187.4375 201.253906 "/>
<path style=" stroke:none;fill-rule:nonzero;fill:rgb(13.729858%,12.159729%,12.548828%);fill-opacity:1;" d="M 310.382812 115.71875 C 310.382812 114.636719 310.082031 113.644531 309.773438 112.667969 L 228.578125 180.320312 L 309.894531 261.644531 C 310.089844 260.824219 310.382812 260.035156 310.382812 259.15625 L 310.382812 115.71875 "/>
<path style=" stroke:none;fill-rule:nonzero;fill:rgb(13.729858%,12.159729%,12.548828%);fill-opacity:1;" d="M 65.117188 112.652344 C 64.800781 113.636719 64.488281 114.625 64.488281 115.71875 L 64.488281 259.15625 C 64.488281 260.042969 64.792969 260.835938 65 261.65625 L 146.324219 180.335938 L 65.117188 112.652344 "/>
<path style=" stroke:none;fill-rule:nonzero;fill:rgb(13.729858%,12.159729%,12.548828%);fill-opacity:1;" d="M 220.664062 186.914062 L 190.71875 211.859375 C 189.777344 212.660156 188.617188 213.050781 187.4375 213.050781 C 186.273438 213.050781 185.113281 212.660156 184.164062 211.859375 L 154.226562 186.925781 L 72.253906 268.890625 C 73.066406 269.109375 73.863281 269.402344 74.734375 269.402344 L 300.136719 269.402344 C 301.023438 269.402344 301.828125 269.109375 302.648438 268.890625 L 220.664062 186.914062 "/>
</g>
</svg>
